<svg
  xmlns="http://www.w3.org/2000/svg"
  width="150"
  height="100"
  xml:space="preserve"
>
  <defs>
    <linearGradient id="Gradient" x1="0" x2="1" y1="0" y2="1">
      <stop offset="0%" stop-color="#A21CAF" />
      <stop offset="100%" stop-color="#F0ABFC" />
    </linearGradient>
  </defs>
  <path
    style="
      stroke-width: 0;
      stroke-dasharray: none;
      stroke-linecap: butt;
      stroke-dashoffset: 0;
      stroke-linejoin: miter;
      stroke-miterlimit: 4;
      fill: #64748b;
      fill-rule: nonzero;
      opacity: 1;
    "
    d="M100 0c27.6 0 50 22.4 50 50s-22.4 50-50 50H50C22.4 100 0 77.6 0 50S22.4 0 50 0h50z"
  />
  <path
    style="
      stroke-width: 0;
      stroke-dasharray: none;
      stroke-linecap: butt;
      stroke-dashoffset: 0;
      stroke-linejoin: miter;
      stroke-miterlimit: 4;
      fill: url(#Gradient);
      fill-rule: nonzero;
      opacity: 1;
    "
    transform="translate(64.003 14.463)"
    d="M73.497 35.537c0 20.7-16.8 37.5-37.5 37.5C18.955 73.037 4.557 61.65 0 46.075a37.422 37.422 0 0 0 11.997 1.962c20.7 0 37.5-16.8 37.5-37.5 0-3.658-.524-7.194-1.502-10.537 14.822 5.007 25.502 19.032 25.502 35.537z"
  />
</svg>
